Normalized EMG Linear Envelopes
nRows=157
nColumns=4

endheader
time	 med_gas_r	  soleus_r	 tib_ant_r	
4.18723	  0.078063	  0.097989	  0.032885	
4.24973	  0.078261	  0.096222	  0.030734	
4.31222	  0.078876	  0.093366	  0.029465	
4.37472	  0.080053	  0.090816	  0.029374	
4.43722	  0.080882	  0.089708	  0.030120	
4.49971	  0.080061	  0.089328	  0.031152	
4.56221	  0.077563	  0.088964	  0.031975	
4.6247	  0.074560	  0.088477	  0.032138	
4.6872	  0.072341	  0.087577	  0.031412	
4.7497	  0.072050	  0.086147	  0.029961	
4.81219	  0.074068	  0.085188	  0.028113	
4.87469	  0.077177	  0.086589	  0.026168	
4.93718	  0.079519	  0.090904	  0.024649	
4.99968	  0.080259	  0.095833	  0.024773	
5.06218	  0.080013	  0.098209	  0.028546	
5.12467	  0.080488	  0.097275	  0.038100	
5.18717	  0.083820	  0.095132	  0.054388	
5.24966	  0.091867	  0.094007	  0.075476	
5.31216	  0.105299	  0.093962	  0.095974	
5.37466	  0.122378	  0.094004	  0.110293	
5.43715	  0.140875	  0.094224	  0.117387	
5.49965	  0.163194	  0.095108	  0.120573	
5.56214	  0.193373	  0.096069	  0.123081	
5.62464	  0.224291	  0.096344	  0.126010	
5.68714	  0.237851	  0.095803	  0.129550	
5.74963	  0.225225	  0.094377	  0.133927	
5.81213	  0.197009	  0.092271	  0.139124	
5.87462	  0.169492	  0.090484	  0.144133	
5.93712	  0.151187	  0.090425	  0.146978	
5.99962	  0.142527	  0.093329	  0.145595	
6.06211	  0.139767	  0.099085	  0.138789	
6.12461	  0.138878	  0.104855	  0.128543	
6.1871	  0.138278	  0.106688	  0.121052	
6.2496	  0.138196	  0.103642	  0.121084	
6.3121	  0.139117	  0.098425	  0.126430	
6.37459	  0.141904	  0.093921	  0.132002	
6.43709	  0.148306	  0.091870	  0.136093	
6.49958	  0.158986	  0.093834	  0.139515	
6.56208	  0.171157	  0.099617	  0.143100	
6.62458	  0.181824	  0.106142	  0.148259	
6.68707	  0.192562	  0.111140	  0.156685	
6.74957	  0.206437	  0.115404	  0.168445	
6.81206	  0.222015	  0.119137	  0.181540	
6.87456	  0.235617	  0.120131	  0.194566	
6.93706	  0.247810	  0.117706	  0.210615	
6.99955	  0.261700	  0.114533	  0.235914	
7.06205	  0.276055	  0.113271	  0.273095	
7.12454	  0.287356	  0.114404	  0.318723	
7.18704	  0.296856	  0.117628	  0.366941	
7.24954	  0.307905	  0.123468	  0.410919	
7.31203	  0.319924	  0.132868	  0.441518	
7.37453	  0.331066	  0.144479	  0.452955	
7.43702	  0.341997	  0.153356	  0.451623	
7.49952	  0.354805	  0.155099	  0.448710	
7.56202	  0.370962	  0.150051	  0.445037	
7.62451	  0.388680	  0.141465	  0.435887	
7.68701	  0.401783	  0.132700	  0.424665	
7.7495	  0.402392	  0.127283	  0.418621	
7.812	  0.386157	  0.127750	  0.417187	
7.8745	  0.358384	  0.133550	  0.412974	
7.93699	  0.332409	  0.141656	  0.400882	
7.99949	  0.318384	  0.148674	  0.383506	
8.06198	  0.316436	  0.152703	  0.368441	
8.12448	  0.319444	  0.155305	  0.360015	
8.18698	  0.320112	  0.160701	  0.355666	
8.24947	  0.316937	  0.170603	  0.352759	
8.31197	  0.312751	  0.181287	  0.354447	
8.37446	  0.309603	  0.188231	  0.362261	
8.43696	  0.308809	  0.192578	  0.366900	
8.49946	  0.311760	  0.199775	  0.356571	
8.56195	  0.316688	  0.211185	  0.332206	
8.62445	  0.319516	  0.222070	  0.306187	
8.68694	  0.320249	  0.229913	  0.289978	
8.74944	  0.323055	  0.236653	  0.288361	
8.81194	  0.329577	  0.240399	  0.300771	
8.87443	  0.337356	  0.235318	  0.323403	
8.93693	  0.342167	  0.220655	  0.349674	
8.99942	  0.337280	  0.201200	  0.369245	
9.06192	  0.316287	  0.181654	  0.369886	
9.12442	  0.281779	  0.166392	  0.345560	
9.18691	  0.246966	  0.159407	  0.304281	
9.24941	  0.225169	  0.159903	  0.264398	
9.3119	  0.219026	  0.161760	  0.240259	
9.3744	  0.221241	  0.159338	  0.233336	
9.4369	  0.224861	  0.152268	  0.237801	
9.49939	  0.229390	  0.145809	  0.249320	
9.56189	  0.235972	  0.147661	  0.264698	
9.62438	  0.243814	  0.162372	  0.278297	
9.68688	  0.253979	  0.187648	  0.284872	
9.74938	  0.267772	  0.216047	  0.284072	
9.81187	  0.281533	  0.238399	  0.279395	
9.87437	  0.290712	  0.246777	  0.275079	
9.93686	  0.294786	  0.239194	  0.275142	
9.99936	  0.294611	  0.221274	  0.281597	
10.0619	  0.290348	  0.201880	  0.291747	
10.1244	  0.282348	  0.188549	  0.298932	
10.1868	  0.271094	  0.183487	  0.296859	
10.2493	  0.256489	  0.180609	  0.284686	
10.3118	  0.237874	  0.170825	  0.267508	
10.3743	  0.215659	  0.152111	  0.250732	
10.4368	  0.191958	  0.131322	  0.237344	
10.4993	  0.167815	  0.116462	  0.229863	
10.5618	  0.142782	  0.109539	  0.229971	
10.6243	  0.119400	  0.106585	  0.236966	
10.6868	  0.103897	  0.102841	  0.246546	
10.7493	  0.100789	  0.096601	  0.250783	
10.8118	  0.110265	  0.088988	  0.244939	
10.8743	  0.129136	  0.082458	  0.233210	
10.9368	  0.149396	  0.079667	  0.221775	
10.9993	  0.159801	  0.081570	  0.210610	
11.0618	  0.156073	  0.086382	  0.196835	
11.1243	  0.147108	  0.091518	  0.181378	
11.1868	  0.144984	  0.095586	  0.168735	
11.2493	  0.150851	  0.097742	  0.162219	
11.3118	  0.156954	  0.097287	  0.161499	
11.3743	  0.160222	  0.095249	  0.163980	
11.4368	  0.163700	  0.094443	  0.166908	
11.4993	  0.165853	  0.096375	  0.168717	
11.5618	  0.161071	  0.099622	  0.169999	
11.6243	  0.150249	  0.102186	  0.172757	
11.6868	  0.140124	  0.103526	  0.177180	
11.7492	  0.133832	  0.103703	  0.179990	
11.8117	  0.129649	  0.102458	  0.177901	
11.8742	  0.126218	  0.099676	  0.171329	
11.9367	  0.123849	  0.095789	  0.162298	
11.9992	  0.122612	  0.091645	  0.150907	
12.0617	  0.121566	  0.087947	  0.137266	
12.1242	  0.119351	  0.085109	  0.125243	
12.1867	  0.115921	  0.084070	  0.120324	
12.2492	  0.113080	  0.085557	  0.123539	
12.3117	  0.112243	  0.088040	  0.130120	
12.3742	  0.113318	  0.089125	  0.134324	
12.4367	  0.115407	  0.088818	  0.133599	
12.4992	  0.116876	  0.088777	  0.128927	
12.5617	  0.116735	  0.089584	  0.123263	
12.6242	  0.116098	  0.090692	  0.119165	
12.6867	  0.116588	  0.091557	  0.117337	
12.7492	  0.118879	  0.092173	  0.117595	
12.8117	  0.122969	  0.093452	  0.120019	
12.8742	  0.127804	  0.095977	  0.124039	
12.9367	  0.130988	  0.097985	  0.127231	
12.9992	  0.130699	  0.096900	  0.126833	
13.0617	  0.128210	  0.092758	  0.122800	
13.1242	  0.126284	  0.088229	  0.118199	
13.1867	  0.125205	  0.086007	  0.116341	
13.2492	  0.123565	  0.086595	  0.117911	
13.3116	  0.121423	  0.088134	  0.120596	
13.3741	  0.119940	  0.088852	  0.121528	
13.4366	  0.119852	  0.088663	  0.119787	
13.4991	  0.120931	  0.087694	  0.116129	
13.5616	  0.122070	  0.085817	  0.112179	
13.6241	  0.122525	  0.084320	  0.110523	
13.6866	  0.122632	  0.085082	  0.112743	
13.7491	  0.122728	  0.087797	  0.117356	
13.8116	  0.122134	  0.090684	  0.121826	
13.8741	  0.119684	  0.093384	  0.125314	
13.9366	  0.115401	  0.096488	  0.128261	
